<svg version="1.1" id="Layer_1" xmlns="http://www.w3.org/2000/svg" xmlns:xlink="http://www.w3.org/1999/xlink" x="0px" y="0px"
	 width="100%" viewBox="0 0 455 172" enable-background="new 0 0 455 172" xml:space="preserve">
<path fill="#FEFFFF" opacity="1.000000" stroke="none" 
	d="
M286.000000,173.000000 
	C190.666702,173.000000 95.833389,173.000000 1.000064,173.000000 
	C1.000042,115.666710 1.000042,58.333424 1.000021,1.000102 
	C152.666580,1.000068 304.333160,1.000068 455.999817,1.000034 
	C455.999878,58.333225 455.999878,115.666451 455.999939,172.999847 
	C399.500000,173.000000 343.000000,173.000000 286.000000,173.000000 
M66.162491,69.190216 
	C66.017525,77.085915 65.795242,84.981888 65.823471,92.876968 
	C65.827080,93.886513 66.910385,95.346886 67.876228,95.824608 
	C74.205246,98.955032 80.639534,101.872620 87.752548,104.876335 
	C89.984695,103.804184 92.116348,102.364479 94.465988,101.722069 
	C106.032539,98.559639 110.491959,91.272652 108.157104,79.518623 
	C107.413437,75.774872 107.368568,71.892319 106.646111,67.478462 
	C101.065910,64.631340 95.507591,61.739738 89.887070,58.974571 
	C88.760979,58.420567 87.074112,57.709778 86.195915,58.155396 
	C79.669167,61.467190 73.281250,65.052597 66.162491,69.190216 
M55.717323,61.970398 
	C62.145981,58.819691 68.574638,55.668987 76.034126,52.013069 
	C68.717812,48.360630 62.696426,45.290367 56.599644,42.377945 
	C55.647686,41.923199 54.126179,41.744114 53.252117,42.190170 
	C47.110413,45.324459 41.069416,48.656075 34.250061,52.177460 
	C33.944801,53.071064 33.375175,53.964035 33.373028,54.858368 
	C33.322315,75.974045 33.304668,97.089996 33.399422,118.205360 
	C33.405315,119.518738 34.010601,121.506599 34.966423,122.028946 
	C41.311642,125.496552 47.828651,128.649811 54.988499,132.257370 
	C54.988499,108.183701 54.988499,85.091728 55.717323,61.970398 
M118.922676,62.935089 
	C118.922676,71.472084 118.922676,80.009087 118.922676,89.138260 
	C121.087502,88.157761 122.601387,87.557076 124.037010,86.806656 
	C129.303467,84.053848 136.458176,82.474113 139.242676,78.115189 
	C141.898178,73.958168 140.122833,66.882225 140.029007,61.093792 
	C139.980240,58.085026 139.356155,55.085587 138.641953,51.485355 
	C122.448753,43.322163 106.275192,35.119366 90.029808,27.061384 
	C88.522964,26.313969 86.235039,25.751076 84.864471,26.357054 
	C78.554260,29.147022 72.440849,32.382088 65.179169,35.993465 
	C82.886757,44.852074 99.481537,53.167309 116.102356,61.430161 
	C116.947815,61.850471 118.017464,61.819817 118.922676,62.935089 
M88.919144,147.043655 
	C104.851089,139.071228 120.797913,131.128159 136.687729,123.072647 
	C138.008835,122.402893 139.884674,120.997589 139.912872,119.893448 
	C140.164902,110.019836 140.059799,100.137093 140.059799,89.383514 
	C121.746727,98.589066 104.379646,107.319092 86.363319,115.776466 
	C79.654488,112.369484 72.945656,108.962502 65.309875,105.084785 
	C65.309875,115.946358 65.246216,125.530304 65.401772,135.110687 
	C65.418564,136.144653 66.475044,137.581512 67.443344,138.111618 
	C73.411987,141.379211 79.472359,144.483261 85.568085,147.509018 
	C86.244568,147.844803 87.337219,147.342163 88.919144,147.043655 
M337.526703,125.985893 
	C329.807098,125.911682 325.475525,133.119217 327.317780,142.934158 
	C327.782928,145.412277 329.809357,148.808060 331.884247,149.506454 
	C335.538849,150.736511 339.783203,150.214203 344.330811,150.454727 
	C343.608734,151.605438 342.812958,154.445358 341.445587,154.754166 
	C337.539001,155.636368 333.400116,155.490067 328.619965,155.795029 
	C329.155640,157.169052 329.374207,160.303299 330.871368,161.134445 
	C338.238495,165.224258 350.338348,160.320694 351.349030,152.273300 
	C352.426361,143.695251 351.591553,134.877075 351.591553,126.386925 
	C346.958771,126.248062 342.646606,126.118805 337.526703,125.985893 
M284.300568,137.078751 
	C286.104736,138.915604 287.908875,140.752472 289.713043,142.589310 
	C286.844666,143.212479 283.992645,144.200821 281.102173,144.330093 
	C279.183411,144.415909 277.209656,143.272781 275.206146,142.663223 
	C274.753326,150.276321 275.103088,150.743637 282.157928,150.953705 
	C284.801208,151.032410 287.529663,151.082794 290.087646,150.533264 
	C294.002533,149.692261 297.243195,147.666016 297.934296,143.234192 
	C298.682861,138.433914 297.038452,134.741684 292.556458,132.537094 
	C290.324280,131.439133 287.960907,130.559860 285.868683,129.244751 
	C284.735535,128.532486 284.047424,127.112267 283.158569,126.011414 
	C284.397827,125.072754 285.607727,123.392120 286.882172,123.341660 
	C290.058044,123.215919 293.263275,123.831856 297.621155,124.266098 
	C296.589081,121.685738 296.151459,118.150742 294.870667,117.812981 
	C289.396912,116.369476 283.609192,115.978004 278.546448,119.403564 
	C273.705139,122.679283 273.462097,129.831161 278.013885,133.636520 
	C279.636871,134.993332 281.722412,135.796799 284.300568,137.078751 
M231.983429,137.658310 
	C232.115921,148.118332 239.773254,153.662628 249.679962,150.471512 
	C255.650909,148.548172 258.925171,142.637833 257.820099,135.777878 
	C256.835602,129.666473 252.285599,126.070778 245.426132,125.983429 
	C237.482712,125.882263 233.325806,129.230621 231.983429,137.658310 
M227.926010,143.176544 
	C228.196152,142.052032 228.644104,140.937149 228.705673,139.801331 
	C228.971497,134.896988 227.889206,130.413467 223.300491,127.818832 
	C218.339005,125.013435 213.065094,125.027374 208.127609,127.833221 
	C203.605453,130.403030 202.230133,134.839661 202.562149,139.773148 
	C202.950134,145.538437 206.505447,149.679932 211.704544,150.796616 
	C218.826797,152.326385 223.901581,150.145279 227.926010,143.176544 
M309.134399,131.479889 
	C311.954620,130.716064 314.290833,130.895355 315.173492,134.599045 
	C312.682953,135.030304 310.402161,135.332138 308.165222,135.830597 
	C302.199097,137.160034 299.711487,140.892853 301.117798,146.255966 
	C302.228333,150.491196 306.970245,152.152252 312.285095,150.254913 
	C313.179962,149.935440 314.242371,149.793488 315.175140,149.929016 
	C317.560486,150.275620 319.916382,150.824951 322.789124,151.393082 
	C322.789124,146.327148 322.793854,142.352768 322.788177,138.378387 
	C322.773621,128.224152 318.244385,124.417084 308.326141,126.216568 
	C303.087555,127.167007 302.553192,128.004608 303.744690,133.397598 
	C305.294250,132.832260 306.843842,132.266907 309.134399,131.479889 
M356.261169,136.946716 
	C356.201019,147.766266 361.366699,152.212601 372.388092,150.926712 
	C376.384155,150.460480 378.630554,148.914688 377.067963,144.475006 
	C368.036652,146.331833 366.357452,145.899429 364.190247,140.602051 
	C369.474518,140.602051 374.497681,140.602051 379.465332,140.602051 
	C379.848022,129.930023 375.359161,125.011642 366.646210,126.051132 
	C360.713043,126.758972 357.702118,130.638641 356.261169,136.946716 
M416.924316,139.614899 
	C416.920044,128.035141 412.703461,124.222931 402.363068,126.243843 
	C398.217377,127.054077 396.026733,128.879807 397.583344,133.370926 
	C406.012390,130.463638 407.927826,129.526306 408.899506,134.669922 
	C406.625824,135.087341 404.333374,135.423599 402.081696,135.938248 
	C396.509094,137.211914 393.903168,141.122452 395.249542,146.054092 
	C396.440674,150.417007 401.107330,152.227829 406.286316,150.387192 
	C407.254242,150.043167 408.348541,149.585846 409.293823,149.739365 
	C411.660980,150.123840 413.976135,150.828720 416.924255,151.556107 
	C416.924255,147.155762 416.924255,143.863327 416.924316,139.614899 
M178.177429,117.652939 
	C178.177429,119.439468 178.177429,121.226006 178.177429,123.240379 
	C181.159088,123.435196 183.912720,123.615120 187.258057,123.833694 
	C187.258057,132.936218 187.258057,141.810165 187.258057,150.737640 
	C190.122787,150.737640 192.367599,150.737640 195.134491,150.737640 
	C195.134491,141.597214 195.134491,132.717560 195.134491,123.729240 
	C198.603256,123.565475 201.548767,123.426407 204.572144,123.283669 
	C204.572144,121.084915 204.572144,119.206062 204.572144,117.101189 
	C195.797897,117.101189 187.358124,117.101189 178.177429,117.652939 
M262.100372,149.138885 
	C264.492340,149.942368 266.884338,150.745865 269.663391,151.679367 
	C269.663391,138.649582 269.663391,127.058990 269.663391,115.382248 
	C267.037262,115.382248 264.680908,115.382248 262.080933,115.382248 
	C262.080933,126.590019 262.080933,137.397949 262.100372,149.138885 
M422.077606,132.608429 
	C422.077606,138.679840 422.077606,144.751251 422.077606,150.655838 
	C425.130219,150.655838 427.370483,150.655838 429.687256,150.655838 
	C429.687256,142.369232 429.687256,134.448349 429.687256,126.351181 
	C427.090179,126.351181 424.735840,126.351181 422.077637,126.351181 
	C422.077637,128.361679 422.077637,130.003586 422.077606,132.608429 
M429.788727,116.518738 
	C427.445984,116.435852 425.076416,116.167091 422.793121,116.496422 
	C422.494995,116.539421 421.938873,120.302498 422.754974,121.187920 
	C423.810455,122.333092 426.833832,123.259613 427.733521,122.583015 
	C429.116669,121.542847 429.413757,119.058411 429.788727,116.518738 
z"/>
<path fill="#4486F4" opacity="1.000000" stroke="none" 
	d="
M87.012566,116.049118 
	C104.379646,107.319092 121.746727,98.589066 140.059799,89.383514 
	C140.059799,100.137093 140.164902,110.019836 139.912872,119.893448 
	C139.884674,120.997589 138.008835,122.402893 136.687729,123.072647 
	C120.797913,131.128159 104.851089,139.071228 88.243874,146.842377 
	C87.383255,136.443787 87.197906,126.246452 87.012566,116.049118 
z"/>
<path fill="#AFCCFA" opacity="1.000000" stroke="none" 
	d="
M118.982735,61.999130 
	C118.017464,61.819817 116.947815,61.850471 116.102356,61.430161 
	C99.481537,53.167309 82.886757,44.852074 65.179169,35.993465 
	C72.440849,32.382088 78.554260,29.147022 84.864471,26.357054 
	C86.235039,25.751076 88.522964,26.313969 90.029808,27.061384 
	C106.275192,35.119366 122.448753,43.322163 138.620178,52.058689 
	C132.059860,55.754391 125.521294,58.876759 118.982735,61.999130 
z"/>
<path fill="#6BA0F6" opacity="1.000000" stroke="none" 
	d="
M54.988499,61.999763 
	C54.988499,85.091728 54.988499,108.183701 54.988499,132.257370 
	C47.828651,128.649811 41.311642,125.496552 34.966423,122.028946 
	C34.010601,121.506599 33.405315,119.518738 33.399422,118.205360 
	C33.304668,97.089996 33.322315,75.974045 33.373028,54.858368 
	C33.375175,53.964035 33.944801,53.071064 34.778061,52.336884 
	C36.540676,53.335236 37.775291,54.174164 38.980278,55.479858 
	C38.943600,73.611038 38.935532,91.275444 38.929966,108.939857 
	C38.927517,116.712830 41.301716,119.255066 49.715519,120.274841 
	C49.715519,100.426918 49.715519,80.606857 50.105957,60.819138 
	C51.993759,61.234238 53.491131,61.617001 54.988499,61.999763 
z"/>
<path fill="#4073E4" opacity="1.000000" stroke="none" 
	d="
M337.930603,125.987724 
	C342.646606,126.118805 346.958771,126.248062 351.591553,126.386925 
	C351.591553,134.877075 352.426361,143.695251 351.349030,152.273300 
	C350.338348,160.320694 338.238495,165.224258 330.871368,161.134445 
	C329.374207,160.303299 329.155640,157.169052 328.619965,155.795029 
	C333.400116,155.490067 337.539001,155.636368 341.445587,154.754166 
	C342.812958,154.445358 343.608734,151.605438 344.330811,150.454727 
	C339.783203,150.214203 335.538849,150.736511 331.884247,149.506454 
	C329.809357,148.808060 327.782928,145.412277 327.317780,142.934158 
	C325.475525,133.119217 329.807098,125.911682 337.930603,125.987724 
M334.863159,141.112915 
	C335.787720,144.860687 338.620911,146.408829 341.472015,144.380005 
	C343.227448,143.130875 344.130493,139.557556 343.974121,137.120316 
	C343.858307,135.314789 341.708771,132.663986 339.952576,132.153595 
	C336.818695,131.242828 335.264008,133.824402 334.840759,136.776245 
	C334.677185,137.916855 334.793091,139.097504 334.863159,141.112915 
z"/>
<path fill="#4487F4" opacity="1.000000" stroke="none" 
	d="
M107.003937,68.073273 
	C107.368568,71.892319 107.413437,75.774872 108.157104,79.518623 
	C110.491959,91.272652 106.032539,98.559639 94.465988,101.722069 
	C92.116348,102.364479 89.984695,103.804184 87.381668,104.410126 
	C87.037285,95.357628 87.063782,86.771347 87.438583,78.089554 
	C94.192566,74.687119 100.598251,71.380196 107.003937,68.073273 
z"/>
<path fill="#4587F4" opacity="1.000000" stroke="none" 
	d="
M118.952705,62.467110 
	C125.521294,58.876759 132.059860,55.754391 138.795181,52.356979 
	C139.356155,55.085587 139.980240,58.085026 140.029007,61.093792 
	C140.122833,66.882225 141.898178,73.958168 139.242676,78.115189 
	C136.458176,82.474113 129.303467,84.053848 124.037010,86.806656 
	C122.601387,87.557076 121.087502,88.157761 118.922676,89.138260 
	C118.922676,80.009087 118.922676,71.472084 118.952705,62.467110 
z"/>
<path fill="#689FF6" opacity="1.000000" stroke="none" 
	d="
M86.687943,115.912796 
	C87.197906,126.246452 87.383255,136.443787 87.902733,146.934738 
	C87.337219,147.342163 86.244568,147.844803 85.568085,147.509018 
	C79.472359,144.483261 73.411987,141.379211 67.443344,138.111618 
	C66.475044,137.581512 65.418564,136.144653 65.401772,135.110687 
	C65.246216,125.530304 65.309875,115.946358 65.309875,105.084785 
	C72.945656,108.962502 79.654488,112.369484 86.687943,115.912796 
M79.368370,136.158112 
	C80.159622,135.796616 81.589470,135.501602 81.635162,135.062515 
	C81.874443,132.763657 81.770447,130.428268 81.771736,128.105576 
	C81.775772,120.832970 78.992302,118.007111 71.280449,117.443756 
	C69.624512,131.270859 69.624512,131.270859 79.368370,136.158112 
z"/>
<path fill="#4174E4" opacity="1.000000" stroke="none" 
	d="
M283.948700,136.965790 
	C281.722412,135.796799 279.636871,134.993332 278.013885,133.636520 
	C273.462097,129.831161 273.705139,122.679283 278.546448,119.403564 
	C283.609192,115.978004 289.396912,116.369476 294.870667,117.812981 
	C296.151459,118.150742 296.589081,121.685738 297.621155,124.266098 
	C293.263275,123.831856 290.058044,123.215919 286.882172,123.341660 
	C285.607727,123.392120 284.397827,125.072754 283.158569,126.011414 
	C284.047424,127.112267 284.735535,128.532486 285.868683,129.244751 
	C287.960907,130.559860 290.324280,131.439133 292.556458,132.537094 
	C297.038452,134.741684 298.682861,138.433914 297.934296,143.234192 
	C297.243195,147.666016 294.002533,149.692261 290.087646,150.533264 
	C287.529663,151.082794 284.801208,151.032410 282.157928,150.953705 
	C275.103088,150.743637 274.753326,150.276321 275.206146,142.663223 
	C277.209656,143.272781 279.183411,144.415909 281.102173,144.330093 
	C283.992645,144.200821 286.844666,143.212479 289.713043,142.589325 
	C287.908875,140.752472 286.104736,138.915604 283.948700,136.965790 
z"/>
<path fill="#B1CDFA" opacity="1.000000" stroke="none" 
	d="
M55.352913,61.985081 
	C53.491131,61.617001 51.993759,61.234238 49.901527,60.591187 
	C45.874409,58.558296 42.442158,56.785690 39.009907,55.013088 
	C37.775291,54.174164 36.540676,53.335236 35.151146,52.210464 
	C41.069416,48.656075 47.110413,45.324459 53.252117,42.190170 
	C54.126179,41.744114 55.647686,41.923199 56.599644,42.377945 
	C62.696426,45.290367 68.717812,48.360630 76.034126,52.013069 
	C68.574638,55.668987 62.145981,58.819691 55.352913,61.985081 
z"/>
<path fill="#AFCCFA" opacity="1.000000" stroke="none" 
	d="
M106.825027,67.775871 
	C100.598251,71.380196 94.192566,74.687119 87.071754,78.020226 
	C84.701057,77.739548 83.045479,77.432693 81.115417,76.873016 
	C77.551338,75.069519 74.261749,73.518845 70.804855,71.681290 
	C69.374954,70.446991 68.112358,69.499550 66.849754,68.552109 
	C73.281250,65.052597 79.669167,61.467190 86.195915,58.155396 
	C87.074112,57.709778 88.760979,58.420567 89.887070,58.974571 
	C95.507591,61.739738 101.065910,64.631340 106.825027,67.775871 
z"/>
<path fill="#4174E4" opacity="1.000000" stroke="none" 
	d="
M231.987366,137.231689 
	C233.325806,129.230621 237.482712,125.882263 245.426132,125.983429 
	C252.285599,126.070778 256.835602,129.666473 257.820099,135.777878 
	C258.925171,142.637833 255.650909,148.548172 249.679962,150.471512 
	C239.773254,153.662628 232.115921,148.118332 231.987366,137.231689 
M243.755920,131.964249 
	C239.964401,134.143677 238.396500,139.381882 240.492676,142.866455 
	C242.005035,145.380539 246.825989,146.319763 248.211014,143.863129 
	C249.544662,141.497635 250.053726,138.177811 249.607910,135.496277 
	C249.370010,134.065353 246.348602,133.097214 243.755920,131.964249 
z"/>
<path fill="#4073E4" opacity="1.000000" stroke="none" 
	d="
M227.815643,143.548111 
	C223.901581,150.145279 218.826797,152.326385 211.704544,150.796616 
	C206.505447,149.679932 202.950134,145.538437 202.562149,139.773148 
	C202.230133,134.839661 203.605453,130.403030 208.127609,127.833221 
	C213.065094,125.027374 218.339005,125.013435 223.300491,127.818832 
	C227.889206,130.413467 228.971497,134.896988 228.705673,139.801331 
	C228.644104,140.937149 228.196152,142.052032 227.815643,143.548111 
M220.836899,140.961426 
	C221.053665,137.328308 221.784607,133.303375 216.997955,132.032486 
	C214.190704,131.287140 211.640991,132.286346 210.795181,135.441498 
	C209.859741,138.930862 209.509338,142.708221 213.302200,144.597305 
	C216.198883,146.040024 219.186371,145.366516 220.836899,140.961426 
z"/>
<path fill="#4476E5" opacity="1.000000" stroke="none" 
	d="
M308.763916,131.590729 
	C306.843842,132.266907 305.294250,132.832260 303.744690,133.397659 
	C302.553192,128.004608 303.087555,127.167007 308.326141,126.216568 
	C318.244385,124.417084 322.773621,128.224152 322.788177,138.378387 
	C322.793854,142.352768 322.789124,146.327148 322.789124,151.393082 
	C319.916382,150.824951 317.560486,150.275620 315.175140,149.929016 
	C314.242371,149.793488 313.179962,149.935440 312.285095,150.254913 
	C306.970245,152.152252 302.228333,150.491196 301.117798,146.255966 
	C299.711487,140.892853 302.199097,137.160034 308.165222,135.830597 
	C310.402161,135.332138 312.682953,135.030304 315.173492,134.599045 
	C314.290833,130.895355 311.954620,130.716064 308.763916,131.590729 
M314.659363,143.604370 
	C314.119720,142.324570 313.513428,139.936722 313.052429,139.964447 
	C311.407654,140.063370 309.701233,140.808899 308.277679,141.716705 
	C307.930634,141.938049 308.531403,144.616333 308.767822,144.627319 
	C310.547821,144.710068 312.345673,144.408356 314.659363,143.604370 
z"/>
<path fill="#4476E4" opacity="1.000000" stroke="none" 
	d="
M356.323975,136.545135 
	C357.702118,130.638641 360.713043,126.758972 366.646210,126.051132 
	C375.359161,125.011642 379.848022,129.930023 379.465332,140.602051 
	C374.497681,140.602051 369.474518,140.602051 364.190247,140.602051 
	C366.357452,145.899429 368.036652,146.331833 377.067963,144.475006 
	C378.630554,148.914688 376.384155,150.460480 372.388092,150.926712 
	C361.366699,152.212601 356.201019,147.766266 356.323975,136.545135 
M371.872559,135.569168 
	C370.987976,134.091568 369.715271,131.247742 369.285156,131.369919 
	C367.288818,131.937042 365.526062,133.326416 363.679688,134.421432 
	C363.917480,134.917984 364.155243,135.414536 364.393036,135.911087 
	C366.630096,135.911087 368.867188,135.911087 371.872559,135.569168 
z"/>
<path fill="#4375E4" opacity="1.000000" stroke="none" 
	d="
M416.924286,140.092896 
	C416.924255,143.863327 416.924255,147.155762 416.924255,151.556107 
	C413.976135,150.828720 411.660980,150.123840 409.293823,149.739365 
	C408.348541,149.585846 407.254242,150.043167 406.286316,150.387192 
	C401.107330,152.227829 396.440674,150.417007 395.249542,146.054092 
	C393.903168,141.122452 396.509094,137.211914 402.081696,135.938248 
	C404.333374,135.423599 406.625824,135.087341 408.899506,134.669922 
	C407.927826,129.526306 406.012390,130.463638 397.589478,133.375061 
	C396.026733,128.879807 398.217377,127.054077 402.363068,126.243843 
	C412.703461,124.222931 416.920044,128.035141 416.924286,140.092896 
M409.047882,139.556076 
	C407.897430,139.657013 406.597931,139.455887 405.632751,139.932236 
	C404.303009,140.588486 403.086060,141.644287 402.157776,142.799667 
	C401.970764,143.032410 403.249908,145.178253 403.920929,145.215393 
	C405.410919,145.297836 407.303223,145.013733 408.349396,144.098923 
	C409.238647,143.321350 409.172485,141.451111 409.047882,139.556076 
z"/>
<path fill="#3F72E4" opacity="1.000000" stroke="none" 
	d="
M178.547882,117.377060 
	C187.358124,117.101189 195.797897,117.101189 204.572144,117.101189 
	C204.572144,119.206062 204.572144,121.084915 204.572144,123.283669 
	C201.548767,123.426407 198.603256,123.565475 195.134491,123.729240 
	C195.134491,132.717560 195.134491,141.597214 195.134491,150.737640 
	C192.367599,150.737640 190.122787,150.737640 187.258057,150.737640 
	C187.258057,141.810165 187.258057,132.936218 187.258057,123.833694 
	C183.912720,123.615120 181.159088,123.435196 178.177429,123.240379 
	C178.177429,121.226006 178.177429,119.439468 178.547882,117.377060 
z"/>
<path fill="#699FF6" opacity="1.000000" stroke="none" 
	d="
M81.389908,77.125839 
	C83.045479,77.432693 84.701057,77.739548 86.723450,78.115738 
	C87.063782,86.771347 87.037285,95.357628 87.025116,104.401810 
	C80.639534,101.872620 74.205246,98.955032 67.876228,95.824608 
	C66.910385,95.346886 65.827080,93.886513 65.823471,92.876968 
	C65.795242,84.981888 66.017525,77.085915 66.506119,68.871170 
	C68.112358,69.499550 69.374954,70.446991 70.787735,72.151978 
	C70.934914,75.902054 70.929901,78.894569 70.929329,81.887093 
	C70.927696,90.551399 71.887527,91.689629 81.389908,93.901749 
	C81.389908,88.251915 81.389908,82.688881 81.389908,77.125839 
z"/>
<path fill="#4275E4" opacity="1.000000" stroke="none" 
	d="
M262.090637,148.672379 
	C262.080933,137.397949 262.080933,126.590019 262.080933,115.382248 
	C264.680908,115.382248 267.037262,115.382248 269.663391,115.382248 
	C269.663391,127.058990 269.663391,138.649582 269.663391,151.679367 
	C266.884338,150.745865 264.492340,149.942368 262.090637,148.672379 
z"/>
<path fill="#4275E4" opacity="1.000000" stroke="none" 
	d="
M422.077637,132.126953 
	C422.077637,130.003586 422.077637,128.361679 422.077637,126.351181 
	C424.735840,126.351181 427.090179,126.351181 429.687256,126.351181 
	C429.687256,134.448349 429.687256,142.369232 429.687256,150.655838 
	C427.370483,150.655838 425.130219,150.655838 422.077606,150.655838 
	C422.077606,144.751251 422.077606,138.679840 422.077637,132.126953 
z"/>
<path fill="#4476E5" opacity="1.000000" stroke="none" 
	d="
M429.980194,116.852760 
	C429.413757,119.058411 429.116669,121.542847 427.733521,122.583015 
	C426.833832,123.259613 423.810455,122.333092 422.754974,121.187920 
	C421.938873,120.302498 422.494995,116.539421 422.793121,116.496422 
	C425.076416,116.167091 427.445984,116.435852 429.980194,116.852760 
z"/>
<path fill="#FEFFFF" opacity="1.000000" stroke="none" 
	d="
M38.980278,55.479858 
	C42.442158,56.785690 45.874409,58.558296 49.511089,60.558846 
	C49.715519,80.606857 49.715519,100.426918 49.715519,120.274841 
	C41.301716,119.255066 38.927517,116.712830 38.929966,108.939857 
	C38.935532,91.275444 38.943600,73.611038 38.980278,55.479858 
z"/>
<path fill="#FBFCFE" opacity="1.000000" stroke="none" 
	d="
M334.822418,140.686417 
	C334.793091,139.097504 334.677185,137.916855 334.840759,136.776245 
	C335.264008,133.824402 336.818695,131.242828 339.952576,132.153595 
	C341.708771,132.663986 343.858307,135.314789 343.974121,137.120316 
	C344.130493,139.557556 343.227448,143.130875 341.472015,144.380005 
	C338.620911,146.408829 335.787720,144.860687 334.822418,140.686417 
z"/>
<path fill="#F4F8FE" opacity="1.000000" stroke="none" 
	d="
M79.025085,136.005997 
	C69.624512,131.270859 69.624512,131.270859 71.280449,117.443756 
	C78.992302,118.007111 81.775772,120.832970 81.771736,128.105576 
	C81.770447,130.428268 81.874443,132.763657 81.635162,135.062515 
	C81.589470,135.501602 80.159622,135.796616 79.025085,136.005997 
z"/>
<path fill="#FDFEFF" opacity="1.000000" stroke="none" 
	d="
M81.115417,76.873016 
	C81.389908,82.688881 81.389908,88.251915 81.389908,93.901749 
	C71.887527,91.689629 70.927696,90.551399 70.929329,81.887093 
	C70.929901,78.894569 70.934914,75.902054 70.955032,72.438843 
	C74.261749,73.518845 77.551338,75.069519 81.115417,76.873016 
z"/>
<path fill="#FBFCFE" opacity="1.000000" stroke="none" 
	d="
M244.169708,131.942230 
	C246.348602,133.097214 249.370010,134.065353 249.607910,135.496277 
	C250.053726,138.177811 249.544662,141.497635 248.211014,143.863129 
	C246.825989,146.319763 242.005035,145.380539 240.492676,142.866455 
	C238.396500,139.381882 239.964401,134.143677 244.169708,131.942230 
z"/>
<path fill="#F7F9FE" opacity="1.000000" stroke="none" 
	d="
M220.684937,141.344543 
	C219.186371,145.366516 216.198883,146.040024 213.302200,144.597305 
	C209.509338,142.708221 209.859741,138.930862 210.795181,135.441498 
	C211.640991,132.286346 214.190704,131.287140 216.997955,132.032486 
	C221.784607,133.303375 221.053665,137.328308 220.684937,141.344543 
z"/>
<path fill="#F4F8FE" opacity="1.000000" stroke="none" 
	d="
M314.398682,143.915588 
	C312.345673,144.408356 310.547821,144.710068 308.767822,144.627319 
	C308.531403,144.616333 307.930634,141.938049 308.277679,141.716705 
	C309.701233,140.808899 311.407654,140.063370 313.052429,139.964447 
	C313.513428,139.936722 314.119720,142.324570 314.398682,143.915588 
z"/>
<path fill="#F7F9FE" opacity="1.000000" stroke="none" 
	d="
M371.488403,135.740128 
	C368.867188,135.911087 366.630096,135.911087 364.393036,135.911087 
	C364.155243,135.414536 363.917480,134.917984 363.679688,134.421432 
	C365.526062,133.326416 367.288818,131.937042 369.285156,131.369919 
	C369.715271,131.247742 370.987976,134.091568 371.488403,135.740128 
z"/>
<path fill="#EDF2FC" opacity="1.000000" stroke="none" 
	d="
M409.288452,139.810196 
	C409.172485,141.451111 409.238647,143.321350 408.349396,144.098923 
	C407.303223,145.013733 405.410919,145.297836 403.920929,145.215393 
	C403.249908,145.178253 401.970764,143.032410 402.157776,142.799667 
	C403.086060,141.644287 404.303009,140.588486 405.632751,139.932236 
	C406.597931,139.455887 407.897430,139.657013 409.288452,139.810196 
z"/>
</svg>